<?xml version="1.0" encoding="UTF-8"?>
<svg id="Layer_1" xmlns="http://www.w3.org/2000/svg" xmlns:xlink="http://www.w3.org/1999/xlink" xmlns:ev="http://www.w3.org/2001/xml-events" version="1.1" viewBox="0 0 1400 480">
  <!-- Generator: Adobe Illustrator 29.8.2, SVG Export Plug-In . SVG Version: 2.1.1 Build 3)  -->
  <defs>
    <image id="image" width="1536" height="1024" xlink:href="ChatGPT Image Oct 6, 2025, 10_56_08 AM.png"/>
  </defs>
  <rect width="1400" height="480" fill="none"/>
  <path d="M10,10h1380v460H10V10Z" fill="none" isolation="isolate" opacity=".5" stroke="#fff" stroke-linecap="round" stroke-linejoin="round" stroke-width="1.2"/>
  <path d="M20,410c240-50,460,30,700-10s430-60,660,20" fill="none" isolation="isolate" opacity=".45" stroke="#fff" stroke-linecap="round" stroke-linejoin="round" stroke-width="1.6"/>
  <path d="M140,360c-30-60-20-120,20-170s60-90,50-120" fill="none" isolation="isolate" opacity=".95" stroke="#fff" stroke-linecap="round" stroke-linejoin="round" stroke-width="2.2"/>
  <path d="M180,355c-10-55,50-85,50-145,0-40,20-80,30-120" fill="none" isolation="isolate" opacity=".95" stroke="#fff" stroke-linecap="round" stroke-linejoin="round" stroke-width="2.2"/>
  <path d="M120,365c-30-15-40-25-55-35-10-10-15-22-5-30" fill="none" isolation="isolate" opacity=".95" stroke="#fff" stroke-linecap="round" stroke-linejoin="round" stroke-width="1.8"/>
  <path d="M160.35,370c30-18,60-28,90-38" fill="none" isolation="isolate" opacity=".95" stroke="#fff" stroke-linecap="round" stroke-linejoin="round" stroke-width="1.4"/>
  <path d="M1255.31,365c-60-50-70-110-20-160s70-80,60-120" fill="none" isolation="isolate" opacity=".95" stroke="#fff" stroke-linecap="round" stroke-linejoin="round" stroke-width="2.2"/>
  <path d="M1190,360c30-40,40-80,50-120,20-60,30-100,50-120" fill="none" isolation="isolate" opacity=".95" stroke="#fff" stroke-linecap="round" stroke-linejoin="round" stroke-width="2.2"/>
  <path d="M1229.33,364c-30-20-60-30-70-40" fill="none" isolation="isolate" opacity=".95" stroke="#fff" stroke-linecap="round" stroke-linejoin="round" stroke-width="1.6"/>
  <path d="M537.46,394.6c0-40,30-80,80-110,60-40,100-80,120-120" fill="none" isolation="isolate" opacity=".95" stroke="#fff" stroke-linecap="round" stroke-linejoin="round" stroke-width="2.1"/>
  <path d="M502.37,431.1c0-45-30-75-60-95-40-25-70-50-80-80" fill="none" isolation="isolate" opacity=".95" stroke="#fff" stroke-linecap="round" stroke-linejoin="round" stroke-width="2.1"/>
  <circle cx="232.35" cy="308" r="22" fill="none" isolation="isolate" opacity=".9" stroke="#fff" stroke-width="1.6"/>
  <ellipse cx="120.51" cy="366.13" rx="9.84" ry="3.14" fill="none" isolation="isolate" opacity=".7" stroke="#fff" stroke-width="1.2"/>
  <ellipse cx="502.37" cy="432.6" rx="22" ry="5" fill="none" isolation="isolate" opacity=".9" stroke="#fff" stroke-width="1.6"/>
  <ellipse cx="502.37" cy="432.6" rx="12" ry="2.73" fill="none" isolation="isolate" opacity=".7" stroke="#fff" stroke-width="1.2"/>
  <ellipse cx="930.66" cy="360.51" rx="6.33" ry="6.53" fill="none" isolation="isolate" opacity=".9" stroke="#fff" stroke-width="1.6"/>
  <path d="M269.82,440c-10-50-5-100,8-140" fill="none" isolation="isolate" opacity=".85" stroke="#fff" stroke-linecap="round" stroke-linejoin="round" stroke-width="1.1"/>
  <path d="M283.82,440c-10-50-5-100,8-140" fill="none" isolation="isolate" opacity=".85" stroke="#fff" stroke-linecap="round" stroke-linejoin="round" stroke-width="1.1"/>
  <path d="M297.82,440c-10-50-5-100,8-140" fill="none" isolation="isolate" opacity=".85" stroke="#fff" stroke-linecap="round" stroke-linejoin="round" stroke-width="1.1"/>
  <path d="M311.82,440c-10-50-5-100,8-140" fill="none" isolation="isolate" opacity=".85" stroke="#fff" stroke-linecap="round" stroke-linejoin="round" stroke-width="1.1"/>
  <path d="M325.82,440c-10-50-5-100,8-140" fill="none" isolation="isolate" opacity=".85" stroke="#fff" stroke-linecap="round" stroke-linejoin="round" stroke-width="1.1"/>
  <path d="M339.82,440c-10-50-5-100,8-140" fill="none" isolation="isolate" opacity=".85" stroke="#fff" stroke-linecap="round" stroke-linejoin="round" stroke-width="1.1"/>
  <path d="M353.82,440c-10-50-5-100,8-140" fill="none" isolation="isolate" opacity=".85" stroke="#fff" stroke-linecap="round" stroke-linejoin="round" stroke-width="1.1"/>
  <path d="M367.82,440c-10-50-5-100,8-140" fill="none" isolation="isolate" opacity=".85" stroke="#fff" stroke-linecap="round" stroke-linejoin="round" stroke-width="1.1"/>
  <path d="M1040,402c10-50,5-98-8-140" fill="none" isolation="isolate" opacity=".85" stroke="#fff" stroke-linecap="round" stroke-linejoin="round" stroke-width="1.1"/>
  <path d="M1054,402c10-50,5-98-8-140" fill="none" isolation="isolate" opacity=".85" stroke="#fff" stroke-linecap="round" stroke-linejoin="round" stroke-width="1.1"/>
  <path d="M1068,402c10-50,5-98-8-140" fill="none" isolation="isolate" opacity=".85" stroke="#fff" stroke-linecap="round" stroke-linejoin="round" stroke-width="1.1"/>
  <path d="M1082,402c10-50,5-98-8-140" fill="none" isolation="isolate" opacity=".85" stroke="#fff" stroke-linecap="round" stroke-linejoin="round" stroke-width="1.1"/>
  <path d="M1096,402c10-50,5-98-8-140" fill="none" isolation="isolate" opacity=".85" stroke="#fff" stroke-linecap="round" stroke-linejoin="round" stroke-width="1.1"/>
  <path d="M1110,402c10-50,5-98-8-140" fill="none" isolation="isolate" opacity=".85" stroke="#fff" stroke-linecap="round" stroke-linejoin="round" stroke-width="1.1"/>
  <path d="M1124,402c10-50,5-98-8-140" fill="none" isolation="isolate" opacity=".85" stroke="#fff" stroke-linecap="round" stroke-linejoin="round" stroke-width="1.1"/>
  <path d="M1138,402c10-50,5-98-8-140" fill="none" isolation="isolate" opacity=".85" stroke="#fff" stroke-linecap="round" stroke-linejoin="round" stroke-width="1.1"/>
  <ellipse cx="700" cy="390" rx="110" ry="28" fill="none" isolation="isolate" opacity=".95" stroke="#fff" stroke-width="2"/>
  <ellipse cx="706" cy="390" rx="96" ry="24" fill="none" isolation="isolate" opacity=".75" stroke="#fff" stroke-width="1.2"/>
  <ellipse cx="700" cy="390" rx="82" ry="20" fill="none" isolation="isolate" opacity=".75" stroke="#fff" stroke-width="1.2"/>
  <ellipse cx="706" cy="390" rx="68" ry="16" fill="none" isolation="isolate" opacity=".75" stroke="#fff" stroke-width="1.2"/>
  <ellipse cx="700" cy="390" rx="54" ry="12" fill="none" isolation="isolate" opacity=".75" stroke="#fff" stroke-width="1.2"/>
  <ellipse cx="650" cy="385" rx="10" ry="6" fill="none" isolation="isolate" opacity=".8" stroke="#fff" stroke-width="1.3"/>
  <ellipse cx="665" cy="398" rx="10" ry="6" fill="none" isolation="isolate" opacity=".8" stroke="#fff" stroke-width="1.3"/>
  <ellipse cx="740" cy="392" rx="10" ry="6" fill="none" isolation="isolate" opacity=".8" stroke="#fff" stroke-width="1.3"/>
  <ellipse cx="760" cy="380" rx="10" ry="6" fill="none" isolation="isolate" opacity=".8" stroke="#fff" stroke-width="1.3"/>
  <ellipse cx="715" cy="410" rx="10" ry="6" fill="none" isolation="isolate" opacity=".8" stroke="#fff" stroke-width="1.3"/>
  <path d="M640,360c25-10,95-10,120,0" fill="none" isolation="isolate" opacity=".85" stroke="#fff" stroke-linecap="round" stroke-linejoin="round" stroke-width="1.6"/>
  <path d="M655,352c45-12,65-12,90,0" fill="none" isolation="isolate" opacity=".75" stroke="#fff" stroke-linecap="round" stroke-linejoin="round" stroke-width="1.2"/>
  <path d="M260,210c9.6-4.8,19.2-4.8,28.8,0-9.6,4.8-19.2,4.8-28.8,0Z" fill="none" isolation="isolate" opacity=".9" stroke="#fff" stroke-linecap="round" stroke-linejoin="round" stroke-width="1.2"/>
  <path d="M274.4,210l8,9.6-8-9.6,8-9.6-8,9.6Z" fill="none" isolation="isolate" opacity=".9" stroke="#fff" stroke-linecap="round" stroke-linejoin="round"/>
  <path d="M1160,190c-10.8-5.4-21.6-5.4-32.4,0,10.8,5.4,21.6,5.4,32.4,0Z" fill="none" isolation="isolate" opacity=".9" stroke="#fff" stroke-linecap="round" stroke-linejoin="round" stroke-width="1.2"/>
  <path d="M1143.8,190l-9,10.8,9-10.8-9-10.8,9,10.8Z" fill="none" isolation="isolate" opacity=".9" stroke="#fff" stroke-linecap="round" stroke-linejoin="round"/>
  <path d="M840,260c8.4-4.2,16.8-4.2,25.2,0-8.4,4.2-16.8,4.2-25.2,0Z" fill="none" isolation="isolate" opacity=".9" stroke="#fff" stroke-linecap="round" stroke-linejoin="round" stroke-width="1.2"/>
  <path d="M852.6,260l7,8.4-7-8.4,7-8.4-7,8.4Z" fill="none" isolation="isolate" opacity=".9" stroke="#fff" stroke-linecap="round" stroke-linejoin="round"/>
  <path d="M1340,60c-20,30-20,80-20,140s0,100-20,160" fill="none" isolation="isolate" stroke="#fff" stroke-linecap="round" stroke-linejoin="round"/>
  <path d="M1290,360c-8-10-8-20-4-28" fill="none" isolation="isolate" stroke="#fff" stroke-linecap="round" stroke-linejoin="round" stroke-width=".9"/>
  <path d="M1294,352c-8-10-8-20-4-28" fill="none" isolation="isolate" stroke="#fff" stroke-linecap="round" stroke-linejoin="round" stroke-width=".9"/>
  <path d="M1298,344c-8-10-8-20-4-28" fill="none" isolation="isolate" stroke="#fff" stroke-linecap="round" stroke-linejoin="round" stroke-width=".9"/>
  <path d="M1302,336c-8-10-8-20-4-28" fill="none" isolation="isolate" stroke="#fff" stroke-linecap="round" stroke-linejoin="round" stroke-width=".9"/>
  <path d="M1306,328c-8-10-8-20-4-28" fill="none" isolation="isolate" stroke="#fff" stroke-linecap="round" stroke-linejoin="round" stroke-width=".9"/>
  <path d="M1310,320c-8-10-8-20-4-28" fill="none" isolation="isolate" stroke="#fff" stroke-linecap="round" stroke-linejoin="round" stroke-width=".9"/>
  <path d="M1314,312c-8-10-8-20-4-28" fill="none" isolation="isolate" stroke="#fff" stroke-linecap="round" stroke-linejoin="round" stroke-width=".9"/>
  <path d="M1318,304c-8-10-8-20-4-28" fill="none" isolation="isolate" stroke="#fff" stroke-linecap="round" stroke-linejoin="round" stroke-width=".9"/>
  <ellipse cx="947.64" cy="377.35" rx="5.42" ry="5.76" fill="none" isolation="isolate" opacity=".9" stroke="#fff" stroke-width="1.6"/>
  <ellipse cx="947.64" cy="339.41" rx="8.54" ry="9.07" fill="none" isolation="isolate" opacity=".9" stroke="#fff" stroke-width="1.6"/>
  <ellipse cx="925.24" cy="328.01" rx="5.42" ry="5.76" fill="none" isolation="isolate" opacity=".9" stroke="#fff" stroke-width="1.6"/>
  <ellipse cx="947.64" cy="311.7" rx="6.33" ry="6.53" fill="none" isolation="isolate" opacity=".9" stroke="#fff" stroke-width="1.6"/>
  <ellipse cx="930.99" cy="297.46" rx="4.31" ry="4.57" fill="none" isolation="isolate" opacity=".9" stroke="#fff" stroke-width="1.6"/>
  <ellipse cx="537.6" cy="395.98" rx="22" ry="5" fill="none" isolation="isolate" opacity=".9" stroke="#fff" stroke-width="1.6"/>
  <ellipse cx="537.6" cy="395.98" rx="12" ry="2.73" fill="none" isolation="isolate" opacity=".7" stroke="#fff" stroke-width="1.2"/>
  <ellipse cx="141.35" cy="360.98" rx="12" ry="3.27" fill="none" isolation="isolate" opacity=".7" stroke="#fff" stroke-width="1.2"/>
  <ellipse cx="180.07" cy="355.43" rx="13.8" ry="4.09" fill="none" isolation="isolate" opacity=".7" stroke="#fff" stroke-width="1.2"/>
  <ellipse cx="159.56" cy="370.29" rx="9.79" ry="2.56" fill="none" isolation="isolate" opacity=".7" stroke="#fff" stroke-width="1.2"/>
  <ellipse cx="1190" cy="360.73" rx="9.6" ry="2.55" fill="none" isolation="isolate" opacity=".7" stroke="#fff" stroke-width="1.2"/>
  <ellipse cx="1229.11" cy="364" rx="12" ry="3.27" fill="none" isolation="isolate" opacity=".7" stroke="#fff" stroke-width="1.2"/>
  <ellipse cx="1255.33" cy="366.14" rx="9.22" ry="2.14" fill="none" isolation="isolate" opacity=".7" stroke="#fff" stroke-width="1.2"/>
  <ellipse cx="1300" cy="360.41" rx="8" ry="2.16" fill="none" isolation="isolate" opacity=".7" stroke="#fff" stroke-width="1.2"/>
  <ellipse cx="1290.37" cy="360.41" rx="8" ry="2.16" fill="none" isolation="isolate" opacity=".7" stroke="#fff" stroke-width="1.2"/>
  <use transform="translate(941.09 393.5) rotate(-14.15) scale(.06)" xlink:href="#image"/>
  <use transform="translate(254.74 376.1) rotate(-175.35) scale(.09 -.08)" xlink:href="#image"/>
</svg>