<?xml version="1.0" encoding="utf-8" ?>
<svg baseProfile="tiny" height="480" version="1.2" width="1400" xmlns="http://www.w3.org/2000/svg" xmlns:ev="http://www.w3.org/2001/xml-events" xmlns:xlink="http://www.w3.org/1999/xlink"><defs /><rect fill="none" height="480" width="1400" x="0" y="0" /><path d="M10,10 L1390,10 L1390,470 L10,470 Z" fill="none" opacity="0.5" stroke="white" stroke-linecap="round" stroke-linejoin="round" stroke-width="1.2" /><path d="M20,410 C 260,360 480,440 720,400 S 1150,340 1380,420" fill="none" opacity="0.8" stroke="white" stroke-linecap="round" stroke-linejoin="round" stroke-width="1.6" /><path d="M140,360 C 110,300 120,240 160,190 200,140 220,100 210,70" fill="none" opacity="0.95" stroke="white" stroke-linecap="round" stroke-linejoin="round" stroke-width="2.2" /><path d="M180,355 C 170,300 230,270 230,210 230,170 250,130 260,90" fill="none" opacity="0.95" stroke="white" stroke-linecap="round" stroke-linejoin="round" stroke-width="2.2" /><path d="M120,365 C 90,350 80,340 65,330 55,320 50,308 60,300" fill="none" opacity="0.95" stroke="white" stroke-linecap="round" stroke-linejoin="round" stroke-width="1.8" /><path d="M210,368 C 240,350 270,340 300,330" fill="none" opacity="0.95" stroke="white" stroke-linecap="round" stroke-linejoin="round" stroke-width="1.4" /><path d="M1140,350 C 1080,300 1070,240 1120,190 1170,140 1190,110 1180,70" fill="none" opacity="0.95" stroke="white" stroke-linecap="round" stroke-linejoin="round" stroke-width="2.2" /><path d="M1190,360 C 1220,320 1230,280 1240,240 1260,180 1270,140 1290,120" fill="none" opacity="0.95" stroke="white" stroke-linecap="round" stroke-linejoin="round" stroke-width="2.2" /><path d="M1100,370 C 1070,350 1040,340 1030,330" fill="none" opacity="0.95" stroke="white" stroke-linecap="round" stroke-linejoin="round" stroke-width="1.6" /><path d="M620,340 C 620,300 650,260 700,230 760,190 800,150 820,110" fill="none" opacity="0.95" stroke="white" stroke-linecap="round" stroke-linejoin="round" stroke-width="2.1" /><path d="M560,345 C 560,300 530,270 500,250 460,225 430,200 420,170" fill="none" opacity="0.95" stroke="white" stroke-linecap="round" stroke-linejoin="round" stroke-width="2.1" /><circle cx="350" cy="395" fill="none" opacity="0.9" r="22" stroke="white" stroke-width="1.6" /><circle cx="350" cy="395" fill="none" opacity="0.7" r="12" stroke="white" stroke-width="1.2" /><circle cx="420" cy="395" fill="none" opacity="0.9" r="22" stroke="white" stroke-width="1.6" /><circle cx="420" cy="395" fill="none" opacity="0.7" r="12" stroke="white" stroke-width="1.2" /><circle cx="520" cy="395" fill="none" opacity="0.9" r="22" stroke="white" stroke-width="1.6" /><circle cx="520" cy="395" fill="none" opacity="0.7" r="12" stroke="white" stroke-width="1.2" /><circle cx="880" cy="395" fill="none" opacity="0.9" r="22" stroke="white" stroke-width="1.6" /><circle cx="880" cy="395" fill="none" opacity="0.7" r="12" stroke="white" stroke-width="1.2" /><circle cx="980" cy="395" fill="none" opacity="0.9" r="22" stroke="white" stroke-width="1.6" /><circle cx="980" cy="395" fill="none" opacity="0.7" r="12" stroke="white" stroke-width="1.2" /><circle cx="1040" cy="395" fill="none" opacity="0.9" r="22" stroke="white" stroke-width="1.6" /><circle cx="1040" cy="395" fill="none" opacity="0.7" r="12" stroke="white" stroke-width="1.2" /><path d="M260,400 C 250,350 255,300 268,260" fill="none" opacity="0.85" stroke="white" stroke-linecap="round" stroke-linejoin="round" stroke-width="1.1" /><path d="M274,400 C 264,350 269,300 282,260" fill="none" opacity="0.85" stroke="white" stroke-linecap="round" stroke-linejoin="round" stroke-width="1.1" /><path d="M288,400 C 278,350 283,300 296,260" fill="none" opacity="0.85" stroke="white" stroke-linecap="round" stroke-linejoin="round" stroke-width="1.1" /><path d="M302,400 C 292,350 297,300 310,260" fill="none" opacity="0.85" stroke="white" stroke-linecap="round" stroke-linejoin="round" stroke-width="1.1" /><path d="M316,400 C 306,350 311,300 324,260" fill="none" opacity="0.85" stroke="white" stroke-linecap="round" stroke-linejoin="round" stroke-width="1.1" /><path d="M330,400 C 320,350 325,300 338,260" fill="none" opacity="0.85" stroke="white" stroke-linecap="round" stroke-linejoin="round" stroke-width="1.1" /><path d="M344,400 C 334,350 339,300 352,260" fill="none" opacity="0.85" stroke="white" stroke-linecap="round" stroke-linejoin="round" stroke-width="1.1" /><path d="M358,400 C 348,350 353,300 366,260" fill="none" opacity="0.85" stroke="white" stroke-linecap="round" stroke-linejoin="round" stroke-width="1.1" /><path d="M1040,402 C 1050,352 1045,304 1032,262" fill="none" opacity="0.85" stroke="white" stroke-linecap="round" stroke-linejoin="round" stroke-width="1.1" /><path d="M1054,402 C 1064,352 1059,304 1046,262" fill="none" opacity="0.85" stroke="white" stroke-linecap="round" stroke-linejoin="round" stroke-width="1.1" /><path d="M1068,402 C 1078,352 1073,304 1060,262" fill="none" opacity="0.85" stroke="white" stroke-linecap="round" stroke-linejoin="round" stroke-width="1.1" /><path d="M1082,402 C 1092,352 1087,304 1074,262" fill="none" opacity="0.85" stroke="white" stroke-linecap="round" stroke-linejoin="round" stroke-width="1.1" /><path d="M1096,402 C 1106,352 1101,304 1088,262" fill="none" opacity="0.85" stroke="white" stroke-linecap="round" stroke-linejoin="round" stroke-width="1.1" /><path d="M1110,402 C 1120,352 1115,304 1102,262" fill="none" opacity="0.85" stroke="white" stroke-linecap="round" stroke-linejoin="round" stroke-width="1.1" /><path d="M1124,402 C 1134,352 1129,304 1116,262" fill="none" opacity="0.85" stroke="white" stroke-linecap="round" stroke-linejoin="round" stroke-width="1.1" /><path d="M1138,402 C 1148,352 1143,304 1130,262" fill="none" opacity="0.85" stroke="white" stroke-linecap="round" stroke-linejoin="round" stroke-width="1.1" /><ellipse cx="700" cy="390" fill="none" opacity="0.95" rx="110" ry="28" stroke="white" stroke-width="2.0" /><ellipse cx="706" cy="390" fill="none" opacity="0.75" rx="96" ry="24" stroke="white" stroke-width="1.2" /><ellipse cx="700" cy="390" fill="none" opacity="0.75" rx="82" ry="20" stroke="white" stroke-width="1.2" /><ellipse cx="706" cy="390" fill="none" opacity="0.75" rx="68" ry="16" stroke="white" stroke-width="1.2" /><ellipse cx="700" cy="390" fill="none" opacity="0.75" rx="54" ry="12" stroke="white" stroke-width="1.2" /><ellipse cx="650" cy="385" fill="none" opacity="0.8" rx="10" ry="6" stroke="white" stroke-width="1.3" /><ellipse cx="665" cy="398" fill="none" opacity="0.8" rx="10" ry="6" stroke="white" stroke-width="1.3" /><ellipse cx="740" cy="392" fill="none" opacity="0.8" rx="10" ry="6" stroke="white" stroke-width="1.3" /><ellipse cx="760" cy="380" fill="none" opacity="0.8" rx="10" ry="6" stroke="white" stroke-width="1.3" /><ellipse cx="715" cy="410" fill="none" opacity="0.8" rx="10" ry="6" stroke="white" stroke-width="1.3" /><path d="M680,40 C 695,38 705,38 720,40" fill="none" opacity="0.95" stroke="white" stroke-linecap="round" stroke-linejoin="round" stroke-width="2.0" /><path d="M700,40 C 690,90 710,120 700,160 S 690,220 705,260 S 710,310 700,350" fill="none" opacity="0.9" stroke="white" stroke-linecap="round" stroke-linejoin="round" stroke-width="1.8" /><path d="M715,42 C 725,88 720,130 722,180 S 715,250 718,300" fill="none" opacity="0.8" stroke="white" stroke-linecap="round" stroke-linejoin="round" stroke-width="1.2" /><path d="M685,42 C 675,90 682,130 680,175 S 690,245 688,310" fill="none" opacity="0.8" stroke="white" stroke-linecap="round" stroke-linejoin="round" stroke-width="1.2" /><path d="M640,360 C 665,350 735,350 760,360" fill="none" opacity="0.85" stroke="white" stroke-linecap="round" stroke-linejoin="round" stroke-width="1.6" /><path d="M655,352 C 700,340 720,340 745,352" fill="none" opacity="0.75" stroke="white" stroke-linecap="round" stroke-linejoin="round" stroke-width="1.2" /><path d="M260,210 c 9.600000000000001,-4.800000000000001 19.200000000000003,-4.800000000000001 28.8,0 c -9.600000000000001,4.800000000000001 -19.200000000000003,4.800000000000001 -28.8,0 z" fill="none" opacity="0.9" stroke="white" stroke-linecap="round" stroke-linejoin="round" stroke-width="1.2" /><path d="M274.4,210 l 8.0,9.600000000000001 l -8.0,-9.600000000000001 l 8.0,-9.600000000000001 z" fill="none" opacity="0.9" stroke="white" stroke-linecap="round" stroke-linejoin="round" stroke-width="1.0" /><path d="M1160,190 c -10.8,-5.4 -21.6,-5.4 -32.4,0 c 10.8,5.4 21.6,5.4 32.4,0 z" fill="none" opacity="0.9" stroke="white" stroke-linecap="round" stroke-linejoin="round" stroke-width="1.2" /><path d="M1143.8,190 l -9.0,10.8 l 9.0,-10.8 l -9.0,-10.8 z" fill="none" opacity="0.9" stroke="white" stroke-linecap="round" stroke-linejoin="round" stroke-width="1.0" /><path d="M840,260 c 8.399999999999999,-4.199999999999999 16.799999999999997,-4.199999999999999 25.2,0 c -8.399999999999999,4.199999999999999 -16.799999999999997,4.199999999999999 -25.2,0 z" fill="none" opacity="0.9" stroke="white" stroke-linecap="round" stroke-linejoin="round" stroke-width="1.2" /><path d="M852.6,260 l 7.0,8.399999999999999 l -7.0,-8.399999999999999 l 7.0,-8.399999999999999 z" fill="none" opacity="0.9" stroke="white" stroke-linecap="round" stroke-linejoin="round" stroke-width="1.0" /><path d="M1340,60 C 1320,90 1320,140 1320,200 S 1320,300 1300,360" fill="none" opacity="0.7" stroke="white" stroke-linecap="round" stroke-linejoin="round" stroke-width="1.0" /><path d="M1290,360 C 1282,350 1282,340 1286,332" fill="none" opacity="0.6" stroke="white" stroke-linecap="round" stroke-linejoin="round" stroke-width="0.9" /><path d="M1294,352 C 1286,342 1286,332 1290,324" fill="none" opacity="0.6" stroke="white" stroke-linecap="round" stroke-linejoin="round" stroke-width="0.9" /><path d="M1298,344 C 1290,334 1290,324 1294,316" fill="none" opacity="0.6" stroke="white" stroke-linecap="round" stroke-linejoin="round" stroke-width="0.9" /><path d="M1302,336 C 1294,326 1294,316 1298,308" fill="none" opacity="0.6" stroke="white" stroke-linecap="round" stroke-linejoin="round" stroke-width="0.9" /><path d="M1306,328 C 1298,318 1298,308 1302,300" fill="none" opacity="0.6" stroke="white" stroke-linecap="round" stroke-linejoin="round" stroke-width="0.9" /><path d="M1310,320 C 1302,310 1302,300 1306,292" fill="none" opacity="0.6" stroke="white" stroke-linecap="round" stroke-linejoin="round" stroke-width="0.9" /><path d="M1314,312 C 1306,302 1306,292 1310,284" fill="none" opacity="0.6" stroke="white" stroke-linecap="round" stroke-linejoin="round" stroke-width="0.9" /><path d="M1318,304 C 1310,294 1310,284 1314,276" fill="none" opacity="0.6" stroke="white" stroke-linecap="round" stroke-linejoin="round" stroke-width="0.9" /></svg>